<svg xmlns="http://www.w3.org/2000/svg" fill="none" viewBox="0 0 24 24" stroke-width="2" stroke="currentColor">
    <!-- Сонце (Світла тема) -->
    <g id="sun-icon">
        <path stroke-linecap="round" stroke-linejoin="round" d="M12 3v2.25m6.364 6.364l-1.556 1.556M19.5 12h-2.25M12 18V19.5m-6.364-6.364l-1.556-1.556M4.5 12H6.75m6.364-6.364l1.556 1.556M12 7.5a4.5 4.5 0 110 9 4.5 4.5 0 010-9z" />
    </g>

    <!-- Місяць (Темна тема) -->
    <g id="moon-icon">
        <path stroke-linecap="round" stroke-linejoin="round" d="M21.752 15.002A9.718 9.718 0 0115 20.25c-2.65 0-5.18-.894-7.292-2.51l-.571-.433M16.5 6.495l1.555 1.556m-1.555-1.556A9.718 9.718 0 0112 4.5c-2.65 0-5.18.894-7.292 2.51L3 8.355M16.5 6.495L18.051 8.05" />
    </g>
</svg>
